<?xml version="1.0" encoding="utf-8"?>
<!-- Generator: Adobe Illustrator 23.0.1, SVG Export Plug-In . SVG Version: 6.00 Build 0)  -->
<svg version="1.1" xmlns="http://www.w3.org/2000/svg" xmlns:xlink="http://www.w3.org/1999/xlink" x="0px"
	 y="0px" viewBox="0 0 25 25" style="enable-background:new 0 0 25 25;" xml:space="preserve">
<style type="text/css">
	.st0{fill:#695C55;}
</style>
<title>icon-timer</title>
<g id="Symbols">
	<g id="nav" transform="translate(-221.000000, -8.000000)">
		<g id="nav-history">
			<g transform="translate(214.000000, 8.275862)">
				<g id="icon-timer" transform="translate(7.000000, 0.000000)">
					<path id="Shape" class="st0" d="M1.3,13.5c0,6.2,4.9,11.3,10.9,11.3S23,19.7,23,13.5c0-3.1-1.2-5.9-3.2-7.9l0.9-0.9l0.4,0.4
						c0.2,0.2,0.4,0.3,0.6,0.3s0.4-0.1,0.6-0.3c0.3-0.3,0.3-0.9,0-1.3l-2-2c-0.3-0.3-0.9-0.3-1.2,0s-0.3,0.9,0,1.3l0.4,0.4l-0.9,1
						c-1.6-1.2-3.5-2-5.6-2.1V1.5h1.9c0.5,0,0.9-0.4,0.9-0.9s-0.4-0.9-0.9-0.9H9.3c-0.5,0-0.9,0.4-0.9,0.9s0.4,0.9,0.9,0.9h2v0.8
						C5.7,2.7,1.3,7.6,1.3,13.5z M12.2,4c5.1,0,9.2,4.3,9.2,9.5S17.2,23,12.2,23S3,18.7,3,13.5C3,8.2,7.1,4,12.2,4z"/>
					<path class="st0" d="M12.2,14.2h3.6c0.5,0,0.9-0.4,0.9-0.9s-0.4-0.9-0.9-0.9H13V7.9C13,7.4,12.6,7,12.2,7
						c-0.5,0-0.9,0.4-0.9,0.9v5.5C11.3,13.8,11.7,14.2,12.2,14.2z"/>
				</g>
			</g>
		</g>
	</g>
</g>
</svg>
