<?xml version="1.0" encoding="utf-8"?>
<!-- Generator: Adobe Illustrator 23.0.1, SVG Export Plug-In . SVG Version: 6.00 Build 0)  -->
<svg version="1.1" id="レイヤー_1" xmlns="http://www.w3.org/2000/svg" xmlns:xlink="http://www.w3.org/1999/xlink" x="0px"
	 y="0px" viewBox="0 0 25 25" style="enable-background:new 0 0 25 25;" xml:space="preserve">
<style type="text/css">
	.st0{fill:#FFFFFF;}
</style>
<title>icon-search</title>
<desc>Created with Sketch.</desc>
<g id="Symbols">
	<g id="nav" transform="translate(-34.000000, -8.000000)">
		<g id="nav-search">
			<g transform="translate(34.000000, 8.275862)">
				<path id="icon-search" class="st0" d="M24.4,23.4l-5.9-6.1c1.6-1.9,2.5-4.3,2.5-7c0-5.9-4.6-10.7-10.3-10.7
					C5-0.3,0.4,4.5,0.4,10.4S5,21,10.7,21c2.6,0,4.9-1,6.8-2.6l5.9,6.1c0.1,0.1,0.3,0.2,0.5,0.2c0.2,0,0.4-0.1,0.5-0.2
					C24.7,24.2,24.7,23.7,24.4,23.4z M1.9,10.4c0-5.1,4-9.2,8.9-9.2c4.9,0,8.9,4.1,8.9,9.2s-4,9.2-8.9,9.2
					C5.8,19.6,1.9,15.4,1.9,10.4z"/>
			</g>
		</g>
	</g>
</g>
</svg>
