<?xml version="1.0" encoding="utf-8"?>
<!-- Generator: Adobe Illustrator 23.0.1, SVG Export Plug-In . SVG Version: 6.00 Build 0)  -->
<svg version="1.1" id="レイヤー_1" xmlns="http://www.w3.org/2000/svg" xmlns:xlink="http://www.w3.org/1999/xlink" x="0px"
	 y="0px" viewBox="0 0 25 25" style="enable-background:new 0 0 25 25;" xml:space="preserve">
<style type="text/css">
	.st0{fill:#FFFFFF;}
</style>
<g>
	<g>
		<path class="st0" d="M13.6,1.9c-0.6-0.5-1.5-0.5-2.1,0c-1.2,0.9-2,2.4-2,4.1c0,1.6,0.8,3.1,2,4c0.7,0.5,1.6,0.5,2.2,0
			c1.2-0.9,2-2.4,2-4C15.6,4.3,14.8,2.8,13.6,1.9z"/>
	</g>
	<g>
		<path class="st0" d="M21.9,0.9c0.5,0,1,0,1.5,0.1c1.5,0.3,2.1,2,1.3,3.3c-0.3,0.5-0.5,1-0.5,1.6s0.2,1.2,0.5,1.6
			c0.8,1.3,0.1,2.9-1.4,3.3C23,10.9,22.6,11,22.2,11c-2.9,0-5.2-2.5-5-5.4C17.4,3.1,19.4,1.1,21.9,0.9z"/>
	</g>
	<g>
		<path class="st0" d="M3.1,0.9c-0.5,0-1,0-1.5,0.1C0.2,1.4-0.5,3,0.3,4.3c0.3,0.5,0.5,1,0.5,1.6S0.6,7.1,0.3,7.6
			c-0.8,1.3-0.1,2.9,1.4,3.3C2,10.9,2.4,11,2.8,11c2.9,0,5.2-2.5,5-5.4C7.6,3.1,5.6,1.1,3.1,0.9z"/>
	</g>
	<path class="st0" d="M12.5,24.1C12.5,24.1,12.5,24.1,12.5,24.1c-1.1,0-2-0.5-2.7-1.2L1,13.4c-0.3-0.3-0.3-0.8,0-1.2s0.8-0.3,1.2,0
		l8.9,9.5l0,0c0.4,0.4,0.9,0.7,1.4,0.7c0,0,0,0,0,0c0.5,0,1.1-0.2,1.4-0.6l0,0l8.8-9.5c0.3-0.3,0.8-0.3,1.2,0c0.3,0.3,0.3,0.8,0,1.2
		l-8.8,9.5C14.5,23.7,13.5,24.1,12.5,24.1z"/>
	<path class="st0" d="M12.5,18.6c-0.5,0-0.8-0.4-0.8-0.8v-4.6c0-0.5,0.4-0.8,0.8-0.8c0.5,0,0.8,0.4,0.8,0.8v4.6
		C13.3,18.2,13,18.6,12.5,18.6z"/>
</g>
</svg>
