<?xml version="1.0" encoding="UTF-8"?>
<svg width="100px" height="16px" viewBox="0 0 100 16" version="1.1" xmlns="http://www.w3.org/2000/svg" xmlns:xlink="http://www.w3.org/1999/xlink">
    <!-- Generator: Sketch 52.5 (67469) - http://www.bohemiancoding.com/sketch -->
    <title>logo-typo</title>
    <desc>Created with Sketch.</desc>
    <defs>
        <polygon id="path-1" points="0.284472574 0.283027027 8.98523207 0.283027027 8.98523207 9.41989189 0.284472574 9.41989189"></polygon>
    </defs>
    <g id="Symbols" stroke="none" stroke-width="1" fill="none" fill-rule="evenodd">
        <g id="header" transform="translate(-138.000000, -15.000000)">
            <g id="logo-typo" transform="translate(138.000000, 15.000000)">
                <g>
                    <path d="M1.71700422,8.64614054 L1.71700422,5.51619459 L0.41278481,5.51619459 C0.302658228,5.51619459 0.206455696,5.47381622 0.123755274,5.38949189 C0.0410548523,5.30387027 0.000126582278,5.20614054 0.000126582278,5.09284324 L0.000126582278,3.63770811 C0.000126582278,3.5136 0.0410548523,3.41197838 0.123755274,3.33284324 C0.206455696,3.25414054 0.302658228,3.21435676 0.41278481,3.21435676 L1.71700422,3.21435676 L1.71700422,0.423005405 C1.71700422,0.298897297 1.75835443,0.197708108 1.84063291,0.118140541 C1.92333333,0.0398702703 2.01953586,8.64864865e-05 2.12966245,8.64864865e-05 L4.16046414,8.64864865e-05 C4.28156118,8.64864865e-05 4.38029536,0.0398702703 4.45751055,0.118140541 C4.53472574,0.197708108 4.57312236,0.298897297 4.57312236,0.423005405 L4.57312236,3.21435676 L6.63683544,3.21435676 C6.75793249,3.21435676 6.85962025,3.25414054 6.94232068,3.33284324 C7.0250211,3.41197838 7.06637131,3.5136 7.06637131,3.63770811 L7.06637131,5.09284324 C7.06637131,5.21695135 7.0250211,5.31857297 6.94232068,5.39770811 C6.85962025,5.47641081 6.75793249,5.51619459 6.63683544,5.51619459 L4.57312236,5.51619459 L4.57312236,8.39273514 C4.57312236,8.78711351 4.64443038,9.08635676 4.7878903,9.28873514 C4.93092827,9.49241081 5.1621519,9.5936 5.48113924,9.5936 L6.78535865,9.5936 C6.9064557,9.5936 7.00561181,9.63597838 7.082827,9.7203027 C7.15962025,9.80505946 7.19843882,9.90970811 7.19843882,10.0338162 L7.19843882,11.590573 C7.19843882,11.7034378 7.15962025,11.8016 7.082827,11.8859243 C7.00561181,11.9711135 6.9064557,12.0134919 6.78535865,12.0134919 L5.21700422,12.0134919 C2.88367089,12.0134919 1.71700422,10.8908973 1.71700422,8.64614054" id="Fill-1" fill="#FFFFFF"></path>
                    <path d="M17.1372152,9.61911351 C17.3570464,9.33111351 17.4840506,8.88873514 17.516962,8.29068108 C17.5275105,8.17824865 17.5334177,7.95251892 17.5334177,7.61392432 C17.5334177,7.27532973 17.5275105,7.05003243 17.516962,6.9376 C17.4840506,6.35035676 17.3570464,5.91057297 17.1372152,5.61738378 C16.916962,5.32419459 16.581097,5.1776 16.1300422,5.1776 C15.6785654,5.1776 15.3431224,5.32419459 15.1228692,5.61738378 C14.902616,5.91057297 14.7760338,6.35035676 14.7431224,6.9376 L14.7266667,7.61392432 L14.7431224,8.29068108 C14.7760338,8.88873514 14.902616,9.33111351 15.1228692,9.61911351 C15.3431224,9.90711351 15.6785654,10.0506811 16.1300422,10.0506811 C16.581097,10.0506811 16.916962,9.90711351 17.1372152,9.61911351 M12.9355274,11.1927351 C12.1924895,10.5328432 11.7878481,9.5936 11.7220253,8.37500541 C11.7110549,8.22884324 11.7051477,7.97543784 11.7051477,7.61392432 C11.7051477,7.25327568 11.7110549,6.99900541 11.7220253,6.85241081 C11.7878481,5.65716757 12.2034599,4.72397838 12.9684388,4.05241081 C13.7334177,3.38084324 14.7870042,3.04570811 16.1300422,3.04570811 C17.4726582,3.04570811 18.5266667,3.38084324 19.2916456,4.05241081 C20.0566245,4.72397838 20.4722363,5.65716757 20.538481,6.85241081 C20.56,7.14603243 20.5713924,7.39943784 20.5713924,7.61392432 C20.5713924,7.82841081 20.56,8.08181622 20.538481,8.37500541 C20.4722363,9.5936 20.0675949,10.5328432 19.3249789,11.1927351 C18.5819409,11.8521946 17.516962,12.182573 16.1300422,12.182573 C14.7431224,12.182573 13.6781435,11.8521946 12.9355274,11.1927351" id="Fill-3" fill="#FFFFFF"></path>
                    <path d="M25.7307595,11.8860108 C25.6480591,11.8016865 25.6071308,11.7035243 25.6071308,11.590227 L25.6071308,3.63779459 C25.6071308,3.51368649 25.6480591,3.41206486 25.7307595,3.33292973 C25.813038,3.25422703 25.9092405,3.21444324 26.019789,3.21444324 L28.0505907,3.21444324 C28.1712658,3.21444324 28.2704219,3.25422703 28.3476371,3.33292973 C28.4244304,3.41206486 28.4632489,3.51368649 28.4632489,3.63779459 L28.4632489,4.28038919 C28.7602954,3.90892973 29.1425738,3.60968649 29.6105063,3.38438919 C30.0784388,3.15865946 30.6147257,3.04579459 31.220211,3.04579459 C31.8476371,3.04579459 32.4062869,3.19238919 32.8957384,3.48557838 C33.3856118,3.77876757 33.7712658,4.21292973 34.0518565,4.78806486 C34.3324473,5.3632 34.4725316,6.05725405 34.4725316,6.86892973 L34.4725316,11.590227 C34.4725316,11.7035243 34.4337131,11.8016865 34.3569198,11.8860108 C34.2801266,11.9712 34.1809705,12.0135784 34.0598734,12.0135784 L31.8640928,12.0135784 C31.7429958,12.0135784 31.641308,11.9737946 31.5586076,11.8950919 C31.4763291,11.8159568 31.4349789,11.7147676 31.4349789,11.590227 L31.4349789,6.97141622 C31.4349789,6.46374054 31.3164135,6.07455135 31.0797046,5.80341622 C30.8429958,5.53314595 30.4991139,5.39779459 30.0480591,5.39779459 C29.6075527,5.39779459 29.2611392,5.53530811 29.0079747,5.81163243 C28.7548101,6.08882162 28.6282278,6.47455135 28.6282278,6.97141622 L28.6282278,11.590227 C28.6282278,11.7035243 28.5894093,11.8016865 28.512616,11.8860108 C28.4354008,11.9712 28.3362447,12.0135784 28.2155696,12.0135784 L26.019789,12.0135784 C25.9092405,12.0135784 25.813038,11.9712 25.7307595,11.8860108" id="Fill-5" fill="#FFFFFF"></path>
                    <path d="M40.6884388,11.1587892 C39.9124895,10.4764108 39.4968776,9.52635676 39.4420253,8.30732973 L39.4255696,7.63100541 L39.4420253,6.93738378 C39.4859072,5.71878919 39.8985654,4.76614054 40.68,4.07770811 C41.4618565,3.38927568 42.48,3.04549189 43.7344304,3.04549189 C44.6922363,3.04549189 45.4956118,3.22062703 46.1449789,3.57003243 C46.794346,3.91987027 47.2787342,4.33457297 47.5977215,4.81327568 C47.9171308,5.29327568 48.0875949,5.73046486 48.1095359,6.12484324 C48.1205063,6.24895135 48.0821097,6.35316757 47.9939241,6.43835676 C47.9057384,6.52268108 47.801519,6.56505946 47.6804219,6.56505946 L45.4681857,6.56505946 C45.3470886,6.56505946 45.2534177,6.53695135 45.1875949,6.48073514 C45.1213502,6.42408649 45.0610127,6.33370811 45.0057384,6.2096 C44.8846414,5.89349189 44.7276793,5.66300541 44.5352743,5.51597838 C44.3428692,5.36895135 44.0977215,5.29543784 43.8006751,5.29543784 C42.9529958,5.29543784 42.5129114,5.87057297 42.48,7.02214054 L42.4635443,7.66473514 L42.48,8.22300541 C42.4905485,8.80981622 42.6061603,9.24138378 42.8264135,9.51770811 C43.0466667,9.79403243 43.3711392,9.93241081 43.8006751,9.93241081 C44.1196624,9.93241081 44.3702954,9.86149189 44.55173,9.72051892 C44.7335865,9.57954595 44.8846414,9.3456 45.0057384,9.01868108 C45.0610127,8.89457297 45.1213502,8.80419459 45.1875949,8.74754595 C45.2534177,8.69176216 45.3470886,8.66322162 45.4681857,8.66322162 L47.6804219,8.66322162 C47.7905485,8.66322162 47.8892827,8.70257297 47.9774684,8.78127568 C48.065654,8.86084324 48.1095359,8.95684324 48.1095359,9.06927568 C48.1095359,9.41911351 47.9580591,9.83857297 47.6555274,10.3293838 C47.3529958,10.8201946 46.8715612,11.2517622 46.2112236,11.6240865 C45.5504641,11.9964108 44.7251477,12.1823568 43.7344304,12.1823568 C42.48,12.1823568 41.4643882,11.8411676 40.6884388,11.1587892" id="Fill-7" fill="#FFFFFF"></path>
                    <path d="M58.3291983,6.70019459 L58.3291983,6.66646486 C58.3291983,6.12505946 58.2135865,5.70516757 57.9827848,5.40635676 C57.7515612,5.10711351 57.4266667,4.95792432 57.0085232,4.95792432 C56.5899578,4.95792432 56.2680169,5.10711351 56.0427004,5.40635676 C55.816962,5.70516757 55.7043038,6.12505946 55.7043038,6.66646486 L55.7043038,6.70019459 L58.3291983,6.70019459 Z M53.8549367,11.0742486 C53.0844726,10.3352216 52.68827,9.26105946 52.6663291,7.85046486 L52.6663291,7.32592432 C52.710211,5.98408649 53.117384,4.93500541 53.88827,4.17911351 C54.6583122,3.42322162 55.6983966,3.04570811 57.0085232,3.04570811 C57.9549367,3.04570811 58.7557806,3.23987027 59.4106329,3.62905946 C60.0654852,4.01868108 60.5553586,4.55403243 60.8798312,5.23641081 C61.2043038,5.91878919 61.367173,6.69500541 61.367173,7.56332973 L61.367173,7.98668108 C61.367173,8.11078919 61.3258228,8.21457297 61.2431224,8.2988973 C61.1608439,8.38451892 61.0587342,8.42646486 60.9380591,8.42646486 L55.7043038,8.42646486 L55.7043038,8.52808649 C55.7148523,9.03532973 55.8304641,9.44441081 56.0511392,9.75403243 C56.2709705,10.0649514 56.5844726,10.2197622 56.9920675,10.2197622 C57.2562025,10.2197622 57.4680169,10.166573 57.6275105,10.0593297 C57.7870042,9.95208649 57.938481,9.81327568 58.081519,9.64462703 C58.1806751,9.53219459 58.2604219,9.46127568 58.3207595,9.43316757 C58.381519,9.40462703 58.4781435,9.39122162 58.610211,9.39122162 L60.7726582,9.39122162 C60.8718143,9.39122162 60.9570464,9.42149189 61.0283544,9.48376216 C61.1000844,9.5456 61.1359494,9.62170811 61.1359494,9.71208649 C61.1359494,10.0061405 60.9735021,10.3494919 60.6490295,10.7443027 C60.324135,11.1395459 59.8507173,11.4781405 59.2291983,11.7592216 C58.6072574,12.0416 57.8722363,12.182573 57.0249789,12.182573 C55.6819409,12.182573 54.6254008,11.8132757 53.8549367,11.0742486 Z" id="Fill-9" fill="#FFFFFF"></path>
                    <path d="M66.4435443,11.8860108 C66.3608439,11.8016865 66.3199156,11.7035243 66.3199156,11.590227 L66.3199156,3.65465946 C66.3199156,3.53055135 66.3578903,3.42676757 66.4351055,3.34114595 C66.5123207,3.25682162 66.6110549,3.21444324 66.7325738,3.21444324 L68.7464979,3.21444324 C68.8675949,3.21444324 68.9692827,3.25682162 69.0519831,3.34114595 C69.1346835,3.42676757 69.1760338,3.53055135 69.1760338,3.65465946 L69.1760338,4.29725405 C69.4840506,3.94871351 69.8448101,3.67974054 70.2574684,3.49422703 C70.6701266,3.30741622 71.1291983,3.21444324 71.6359494,3.21444324 L72.3785654,3.21444324 C72.5000844,3.21444324 72.5988186,3.25422703 72.6760338,3.33292973 C72.752827,3.41206486 72.7916456,3.51368649 72.7916456,3.63779459 L72.7916456,5.48211892 C72.7916456,5.59455135 72.752827,5.69357838 72.6760338,5.7779027 C72.5988186,5.86222703 72.5000844,5.90547027 72.3785654,5.90547027 L70.7114768,5.90547027 C70.2709705,5.90547027 69.9325738,6.02957838 69.695865,6.27692973 C69.4591561,6.52557838 69.3410127,6.87498378 69.3410127,7.32601081 L69.3410127,11.590227 C69.3410127,11.7147676 69.2996624,11.8159568 69.216962,11.8950919 C69.1346835,11.9737946 69.0325738,12.0135784 68.9118987,12.0135784 L66.7325738,12.0135784 C66.6220253,12.0135784 66.5258228,11.9712 66.4435443,11.8860108" id="Fill-11" fill="#FFFFFF"></path>
                    <path d="M82.5487764,9.08614054 C82.78,8.79295135 82.9120675,8.42062703 82.9449789,7.9696 C82.9559494,7.89003243 82.9618565,7.72138378 82.9618565,7.46192432 C82.9618565,7.19078919 82.9559494,7.02214054 82.9449789,6.95424865 C82.9120675,6.49154595 82.78,6.11662703 82.5487764,5.82862703 C82.3179747,5.54149189 81.9652321,5.39792432 81.4922363,5.39792432 C81.0078481,5.39792432 80.6555274,5.54711351 80.4356962,5.84549189 C80.215443,6.1443027 80.094346,6.55900541 80.0724051,7.0896 L80.0559494,7.46192432 C80.0559494,8.10451892 80.1601688,8.6096 80.3694515,8.9763027 C80.5787342,9.34300541 80.9529958,9.52635676 81.4922363,9.52635676 C81.9652321,9.52635676 82.3179747,9.37932973 82.5487764,9.08614054 M79.0487764,15.2111135 C78.3884388,14.8612757 77.9150211,14.4586811 77.6289451,14.0016 C77.3424473,13.5449514 77.1998312,13.1639784 77.1998312,12.8591135 C77.1998312,12.7466811 77.2432911,12.6502486 77.3318987,12.5719784 C77.4196624,12.4924108 77.5188186,12.4534919 77.6289451,12.4534919 L79.8411814,12.4534919 C79.951308,12.4534919 80.0394937,12.4790054 80.1053165,12.5296 C80.1715612,12.5801946 80.2318987,12.6671135 80.287173,12.7912216 C80.3968776,13.0398703 80.5399156,13.2340324 80.7162869,13.3750054 C80.8922363,13.5159784 81.1673418,13.5868973 81.5416034,13.5868973 C82.0150211,13.5868973 82.3673418,13.4653838 82.5985654,13.2227892 C82.829789,12.980627 82.9449789,12.5767351 82.9449789,12.0137081 L82.9449789,10.8790054 C82.3614346,11.4999784 81.5639662,11.8100324 80.551308,11.8100324 C79.4390717,11.8100324 78.5888608,11.4805189 78.0002532,10.8201946 C77.4116456,10.1603027 77.0897046,9.18732973 77.0344304,7.90214054 L77.0179747,7.44505946 C77.0179747,6.06819459 77.3179747,4.99143784 77.9175527,4.21262703 C78.5175527,3.43511351 79.3956118,3.04549189 80.551308,3.04549189 C81.1124895,3.04549189 81.6078481,3.15532973 82.036962,3.37587027 C82.4664979,3.59554595 82.8238819,3.89176216 83.1103797,4.26365405 L83.1103797,3.65435676 C83.1103797,3.53024865 83.1487764,3.42646486 83.2255696,3.34127568 C83.3027848,3.25695135 83.401519,3.21457297 83.523038,3.21457297 L85.537384,3.21457297 C85.6580591,3.21457297 85.7601688,3.25695135 85.8424473,3.34127568 C85.9251477,3.42646486 85.9664979,3.53024865 85.9664979,3.65435676 L85.9664979,11.7594378 C85.9664979,13.0567351 85.5867511,14.0439784 84.8272574,14.7203027 C84.0677637,15.3979243 82.9998312,15.7356541 81.6243038,15.7356541 C80.5677637,15.7356541 79.7091139,15.5609514 79.0487764,15.2111135" id="Fill-13" fill="#FFFFFF"></path>
                    <g id="Group-17" transform="translate(90.717300, 2.762681)">
                        <mask id="mask-2" fill="white">
                            <use xlink:href="#path-1"></use>
                        </mask>
                        <g id="Clip-16"></g>
                        <path d="M5.94734177,3.93751351 L5.94734177,3.90378378 C5.94734177,3.36237838 5.83172996,2.94248649 5.60092827,2.64367568 C5.36970464,2.34443243 5.04481013,2.19524324 4.62666667,2.19524324 C4.20810127,2.19524324 3.88616034,2.34443243 3.66084388,2.64367568 C3.43510549,2.94248649 3.32244726,3.36237838 3.32244726,3.90378378 L3.32244726,3.93751351 L5.94734177,3.93751351 Z M1.47308017,8.31156757 C0.702616034,7.57254054 0.306413502,6.49837838 0.284472574,5.08778378 L0.284472574,4.56324324 C0.32835443,3.22140541 0.735527426,2.17232432 1.5064135,1.41643243 C2.2764557,0.660540541 3.31654008,0.283027027 4.62666667,0.283027027 C5.57308017,0.283027027 6.37392405,0.477189189 7.02877637,0.866378378 C7.68362869,1.256 8.17350211,1.79135135 8.49797468,2.47372973 C8.82244726,3.15610811 8.98531646,3.93232432 8.98531646,4.80064865 L8.98531646,5.224 C8.98531646,5.34810811 8.94396624,5.45189189 8.86126582,5.53621622 C8.77898734,5.62183784 8.67687764,5.66378378 8.55620253,5.66378378 L3.32244726,5.66378378 L3.32244726,5.76540541 C3.33299578,6.27264865 3.44860759,6.68172973 3.6692827,6.99135135 C3.88911392,7.30227027 4.20261603,7.45708108 4.61021097,7.45708108 C4.87434599,7.45708108 5.08616034,7.40389189 5.24565401,7.29664865 C5.40514768,7.18940541 5.55662447,7.05059459 5.69966245,6.88194595 C5.79881857,6.76951351 5.8785654,6.69859459 5.93890295,6.67048649 C5.99966245,6.64194595 6.09628692,6.62854054 6.22835443,6.62854054 L8.39080169,6.62854054 C8.48995781,6.62854054 8.57518987,6.65881081 8.64649789,6.72108108 C8.71822785,6.78291892 8.75409283,6.85902703 8.75409283,6.94940541 C8.75409283,7.24345946 8.59164557,7.58681081 8.267173,7.98162162 C7.94227848,8.37686486 7.46886076,8.71545946 6.84734177,8.99654054 C6.22540084,9.27891892 5.49037975,9.41989189 4.64312236,9.41989189 C3.30008439,9.41989189 2.2435443,9.05059459 1.47308017,8.31156757 Z" id="Fill-15" fill="#FFFFFF" mask="url(#mask-2)"></path>
                    </g>
                </g>
            </g>
        </g>
    </g>
</svg>