<?xml version="1.0" encoding="utf-8"?>
<!-- Generator: Adobe Illustrator 15.1.0, SVG Export Plug-In  -->
<!DOCTYPE svg PUBLIC "-//W3C//DTD SVG 1.1//EN" "http://www.w3.org/Graphics/SVG/1.1/DTD/svg11.dtd" [
	<!ENTITY ns_flows "http://ns.adobe.com/Flows/1.0/">
]>
<svg version="1.1"
	 xmlns="http://www.w3.org/2000/svg" xmlns:xlink="http://www.w3.org/1999/xlink" xmlns:a="http://ns.adobe.com/AdobeSVGViewerExtensions/3.0/"
	 x="0px" y="0px" width="75px" height="75px" viewBox="-0.5 -0.988 75 75" enable-background="new -0.5 -0.988 75 75"
	 xml:space="preserve">
<defs>
</defs>
<g>
	<path fill="#FFFFFF" d="M37,4.5c17.921,0,32.5,14.58,32.5,32.5c0,17.921-14.579,32.5-32.5,32.5C19.08,69.5,4.5,54.921,4.5,37
		C4.5,19.08,19.08,4.5,37,4.5 M37,0C16.565,0,0,16.566,0,37c0,20.435,16.565,37,37,37s37-16.565,37-37C74,16.566,57.435,0,37,0L37,0
		z"/>
</g>
<path fill="#FFFFFF" d="M34.733,46.321c-0.207-0.208-0.31-0.482-0.31-0.827v-2.116c0.068-1.823,0.542-3.407,1.419-4.749
	c0.877-1.342,2.125-2.839,3.742-4.491c1.238-1.273,2.159-2.323,2.763-3.148c0.601-0.827,0.955-1.721,1.058-2.684
	c0.034-0.138,0.051-0.361,0.051-0.671c0-1.583-0.67-2.839-2.013-3.769c-1.342-0.93-2.908-1.394-4.697-1.394
	c-1.928,0-3.536,0.508-4.827,1.523c-1.291,1.016-2.125,2.607-2.503,4.774c-0.138,0.757-0.585,1.136-1.342,1.136h-2.271
	c-0.31,0-0.577-0.103-0.8-0.31c-0.224-0.206-0.335-0.481-0.335-0.826c0.068-1.892,0.61-3.639,1.626-5.24
	c1.015-1.6,2.443-2.873,4.284-3.82c1.841-0.945,3.949-1.419,6.324-1.419c2.511,0,4.628,0.431,6.35,1.291
	c1.72,0.86,2.993,1.987,3.82,3.38c0.825,1.395,1.238,2.866,1.238,4.415c0,1.755-0.396,3.27-1.188,4.542
	c-0.792,1.274-1.979,2.754-3.562,4.439c-1.309,1.412-2.29,2.607-2.942,3.588c-0.654,0.98-1.033,2.073-1.136,3.277
	c-0.07,0.965-0.104,1.687-0.104,2.169c-0.172,0.826-0.603,1.238-1.291,1.238h-2.529C35.215,46.63,34.939,46.527,34.733,46.321z
	 M34.243,54.605c-0.225-0.224-0.336-0.507-0.336-0.851V50.76c0-0.343,0.111-0.636,0.336-0.878c0.224-0.239,0.507-0.361,0.852-0.361
	h3.202c0.342,0,0.635,0.122,0.877,0.361c0.239,0.242,0.361,0.535,0.361,0.878v2.995c0,0.344-0.122,0.627-0.361,0.851
	c-0.242,0.225-0.535,0.336-0.877,0.336h-3.202C34.75,54.941,34.466,54.83,34.243,54.605z"/>
</svg>
