<?xml version="1.0" encoding="utf-8"?>
<!-- Generator: Adobe Illustrator 23.0.1, SVG Export Plug-In . SVG Version: 6.00 Build 0)  -->
<svg version="1.1" id="レイヤー_1" xmlns="http://www.w3.org/2000/svg" xmlns:xlink="http://www.w3.org/1999/xlink" x="0px"
	 y="0px" viewBox="0 0 500 500" style="enable-background:new 0 0 500 500;" xml:space="preserve">
<style type="text/css">
	.st0{fill:#5E2B08;}
	.st1{fill:#542F16;}
</style>
<g>
	<g>
		<path class="st0" d="M135.9,134.5v-7.2h-3.1c-0.3,0-0.5-0.1-0.7-0.3c-0.2-0.2-0.3-0.4-0.3-0.7v-3.4c0-0.3,0.1-0.5,0.3-0.7
			c0.2-0.2,0.4-0.3,0.7-0.3h3.1v-6.5c0-0.3,0.1-0.5,0.3-0.7c0.2-0.2,0.4-0.3,0.7-0.3h4.8c0.3,0,0.5,0.1,0.7,0.3
			c0.2,0.2,0.3,0.4,0.3,0.7v6.5h4.9c0.3,0,0.5,0.1,0.7,0.3c0.2,0.2,0.3,0.4,0.3,0.7v3.4c0,0.3-0.1,0.5-0.3,0.7
			c-0.2,0.2-0.4,0.3-0.7,0.3h-4.9v6.7c0,0.9,0.2,1.6,0.5,2.1c0.3,0.5,0.9,0.7,1.6,0.7h3.1c0.3,0,0.5,0.1,0.7,0.3
			c0.2,0.2,0.3,0.4,0.3,0.7v3.6c0,0.3-0.1,0.5-0.3,0.7c-0.2,0.2-0.4,0.3-0.7,0.3h-3.7C138.7,142.3,135.9,139.7,135.9,134.5z"/>
		<path class="st0" d="M162.5,140.4c-1.8-1.5-2.7-3.7-2.9-6.5c0-0.3,0-0.9,0-1.8c0-0.8,0-1.4,0-1.8c0.2-2.8,1.1-4.9,3-6.5
			c1.8-1.6,4.3-2.3,7.5-2.3s5.7,0.8,7.5,2.3s2.8,3.7,3,6.5c0.1,0.7,0.1,1.3,0.1,1.8s0,1.1-0.1,1.8c-0.2,2.8-1.1,5-2.9,6.5
			c-1.8,1.5-4.3,2.3-7.6,2.3C166.8,142.7,164.3,141.9,162.5,140.4z M172.5,136.7c0.5-0.7,0.8-1.7,0.9-3.1c0-0.3,0-0.8,0-1.6
			c0-0.8,0-1.3,0-1.6c-0.1-1.4-0.4-2.4-0.9-3.1c-0.5-0.7-1.3-1-2.4-1c-1.1,0-1.9,0.3-2.4,1c-0.5,0.7-0.8,1.7-0.9,3.1l0,1.6l0,1.6
			c0.1,1.4,0.4,2.4,0.9,3.1c0.5,0.7,1.3,1,2.4,1C171.1,137.7,171.9,137.4,172.5,136.7z"/>
		<path class="st0" d="M192.8,142c-0.2-0.2-0.3-0.4-0.3-0.7v-18.4c0-0.3,0.1-0.5,0.3-0.7c0.2-0.2,0.4-0.3,0.7-0.3h4.8
			c0.3,0,0.5,0.1,0.7,0.3c0.2,0.2,0.3,0.4,0.3,0.7v1.5c0.7-0.9,1.6-1.6,2.7-2.1c1.1-0.5,2.4-0.8,3.8-0.8c1.5,0,2.8,0.3,4,1
			c1.2,0.7,2.1,1.7,2.7,3c0.7,1.3,1,2.9,1,4.8v10.9c0,0.3-0.1,0.5-0.3,0.7c-0.2,0.2-0.4,0.3-0.7,0.3h-5.2c-0.3,0-0.5-0.1-0.7-0.3
			c-0.2-0.2-0.3-0.4-0.3-0.7v-10.7c0-1.2-0.3-2.1-0.8-2.7c-0.6-0.6-1.4-0.9-2.4-0.9c-1,0-1.9,0.3-2.5,1c-0.6,0.6-0.9,1.5-0.9,2.7
			v10.7c0,0.3-0.1,0.5-0.3,0.7c-0.2,0.2-0.4,0.3-0.7,0.3h-5.2C193.3,142.3,193,142.2,192.8,142z"/>
		<path class="st0" d="M228.3,140.3c-1.8-1.6-2.8-3.8-3-6.6l0-1.6l0-1.6c0.1-2.8,1.1-5,2.9-6.6c1.9-1.6,4.3-2.4,7.2-2.4
			c2.3,0,4.2,0.4,5.7,1.2c1.5,0.8,2.7,1.8,3.4,2.9c0.8,1.1,1.2,2.1,1.2,3c0,0.3-0.1,0.5-0.3,0.7c-0.2,0.2-0.5,0.3-0.7,0.3h-5.2
			c-0.3,0-0.5-0.1-0.7-0.2c-0.2-0.1-0.3-0.3-0.4-0.6c-0.3-0.7-0.7-1.3-1.1-1.6c-0.5-0.3-1-0.5-1.7-0.5c-2,0-3.1,1.3-3.1,4l0,1.5
			l0,1.3c0,1.4,0.3,2.4,0.8,3c0.5,0.6,1.3,1,2.3,1c0.8,0,1.4-0.2,1.8-0.5c0.4-0.3,0.8-0.9,1.1-1.6c0.1-0.3,0.3-0.5,0.4-0.6
			c0.2-0.1,0.4-0.2,0.7-0.2h5.2c0.3,0,0.5,0.1,0.7,0.3c0.2,0.2,0.3,0.4,0.3,0.7c0,0.8-0.4,1.8-1.1,2.9c-0.7,1.1-1.9,2.1-3.4,3
			c-1.6,0.9-3.5,1.3-5.9,1.3C232.5,142.7,230.1,141.9,228.3,140.3z"/>
		<path class="st0" d="M259.5,140.1c-1.8-1.7-2.8-4.2-2.8-7.5v-1.2c0.1-3.1,1.1-5.5,2.9-7.3c1.8-1.7,4.3-2.6,7.4-2.6
			c2.2,0,4.1,0.4,5.7,1.3c1.6,0.9,2.7,2.1,3.5,3.7c0.8,1.6,1.2,3.4,1.2,5.4v1c0,0.3-0.1,0.5-0.3,0.7c-0.2,0.2-0.4,0.3-0.7,0.3h-12.4
			v0.2c0,1.2,0.3,2.1,0.8,2.8c0.5,0.7,1.3,1.1,2.2,1.1c0.6,0,1.1-0.1,1.5-0.4c0.4-0.2,0.7-0.6,1.1-1c0.2-0.3,0.4-0.4,0.6-0.5
			c0.1-0.1,0.4-0.1,0.7-0.1h5.1c0.2,0,0.4,0.1,0.6,0.2c0.2,0.1,0.3,0.3,0.3,0.5c0,0.7-0.4,1.5-1.2,2.4c-0.8,0.9-1.9,1.7-3.4,2.3
			c-1.5,0.7-3.2,1-5.2,1C263.8,142.7,261.3,141.8,259.5,140.1z M270.1,130L270.1,130c0-1.3-0.3-2.3-0.8-3c-0.5-0.7-1.3-1-2.3-1
			c-1,0-1.8,0.3-2.3,1c-0.5,0.7-0.8,1.7-0.8,2.9v0.1H270.1z"/>
		<path class="st0" d="M289.3,142c-0.2-0.2-0.3-0.4-0.3-0.7v-18.4c0-0.3,0.1-0.5,0.3-0.7c0.2-0.2,0.4-0.3,0.7-0.3h4.8
			c0.3,0,0.5,0.1,0.7,0.3c0.2,0.2,0.3,0.4,0.3,0.7v1.5c0.7-0.8,1.6-1.4,2.6-1.9c1-0.4,2.1-0.6,3.3-0.6h1.8c0.3,0,0.5,0.1,0.7,0.3
			c0.2,0.2,0.3,0.4,0.3,0.7v4.3c0,0.3-0.1,0.5-0.3,0.7c-0.2,0.2-0.4,0.3-0.7,0.3h-4c-1,0-1.8,0.3-2.4,0.9c-0.6,0.6-0.8,1.4-0.8,2.4
			v9.9c0,0.3-0.1,0.5-0.3,0.7c-0.2,0.2-0.4,0.3-0.7,0.3H290C289.7,142.3,289.5,142.2,289.3,142z"/>
		<path class="st0" d="M319.2,149.7c-1.6-0.8-2.7-1.7-3.4-2.8c-0.7-1.1-1-1.9-1-2.6c0-0.3,0.1-0.5,0.3-0.7c0.2-0.2,0.4-0.3,0.7-0.3
			h5.2c0.3,0,0.5,0.1,0.6,0.2c0.2,0.1,0.3,0.3,0.4,0.6c0.3,0.6,0.6,1,1,1.4c0.4,0.3,1.1,0.5,2,0.5c1.1,0,2-0.3,2.5-0.8
			c0.5-0.6,0.8-1.5,0.8-2.8v-2.6c-1.4,1.4-3.3,2.2-5.7,2.2c-2.6,0-4.6-0.8-6-2.3c-1.4-1.5-2.2-3.8-2.3-6.7l0-1.1
			c0-3.2,0.7-5.7,2.1-7.5c1.4-1.8,3.5-2.7,6.2-2.7c1.3,0,2.5,0.3,3.5,0.8c1,0.5,1.9,1.2,2.5,2.1v-1.4c0-0.3,0.1-0.5,0.3-0.7
			c0.2-0.2,0.4-0.3,0.7-0.3h4.8c0.3,0,0.5,0.1,0.7,0.3c0.2,0.2,0.3,0.4,0.3,0.7v18.7c0,3-0.9,5.3-2.7,6.8c-1.8,1.6-4.3,2.3-7.6,2.3
			C322.8,150.9,320.8,150.5,319.2,149.7z M327.5,135.5c0.5-0.7,0.9-1.5,0.9-2.6c0-0.2,0-0.6,0-1.2c0-0.6,0-1,0-1.2
			c-0.1-1.1-0.4-1.9-0.9-2.6c-0.5-0.7-1.4-1-2.5-1c-1.1,0-2,0.3-2.5,1c-0.5,0.7-0.8,1.6-0.9,2.9l0,0.9c0,1.5,0.2,2.7,0.7,3.5
			c0.5,0.8,1.4,1.3,2.7,1.3C326.1,136.5,326.9,136.2,327.5,135.5z"/>
		<path class="st0" d="M350.3,140.1c-1.8-1.7-2.8-4.2-2.8-7.5v-1.2c0.1-3.1,1.1-5.5,2.9-7.3c1.8-1.7,4.3-2.6,7.4-2.6
			c2.2,0,4.1,0.4,5.7,1.3c1.6,0.9,2.7,2.1,3.5,3.7c0.8,1.6,1.2,3.4,1.2,5.4v1c0,0.3-0.1,0.5-0.3,0.7c-0.2,0.2-0.4,0.3-0.7,0.3h-12.4
			v0.2c0,1.2,0.3,2.1,0.8,2.8c0.5,0.7,1.3,1.1,2.2,1.1c0.6,0,1.1-0.1,1.5-0.4c0.4-0.2,0.7-0.6,1.1-1c0.2-0.3,0.4-0.4,0.6-0.5
			c0.1-0.1,0.4-0.1,0.7-0.1h5.1c0.2,0,0.4,0.1,0.6,0.2c0.2,0.1,0.3,0.3,0.3,0.5c0,0.7-0.4,1.5-1.2,2.4c-0.8,0.9-1.9,1.7-3.4,2.3
			c-1.5,0.7-3.2,1-5.2,1C354.7,142.7,352.2,141.8,350.3,140.1z M360.9,130L360.9,130c0-1.3-0.3-2.3-0.8-3c-0.5-0.7-1.3-1-2.3-1
			c-1,0-1.8,0.3-2.3,1c-0.5,0.7-0.8,1.7-0.8,2.9v0.1H360.9z"/>
	</g>
	<g>
		<g>
			<path class="st1" d="M260.1,180.1c-5.6-4.6-13.9-4.6-19.4,0c-11.1,8.3-18.5,22.2-18.5,37.9c0,14.8,7.4,28.7,18.5,37
				c6.5,4.6,14.8,4.6,20.4,0c11.1-8.3,18.5-22.2,18.5-37C278.6,202.3,271.2,188.5,260.1,180.1z"/>
		</g>
		<g>
			<path class="st1" d="M336.9,170.9c4.6,0,9.3,0,13.9,0.9c13.9,2.8,19.4,18.5,12,30.5c-2.8,4.6-4.6,9.3-4.6,14.8s1.9,11.1,4.6,14.8
				c7.4,12,0.9,26.8-13,30.5c-2.8,0.9-6.5,1.9-10.2,1.9c-26.8,0-48.1-23.1-46.3-50C295.2,191.2,313.7,172.7,336.9,170.9z"/>
		</g>
		<g>
			<path class="st1" d="M163,170.9c-4.6,0-9.3,0-13.9,0.9c-13,3.7-19.4,18.5-12,30.5c2.8,4.6,4.6,9.3,4.6,14.8s-1.9,11.1-4.6,15.7
				c-7.4,12-0.9,26.8,13,30.5c2.8,0,6.5,0.9,10.2,0.9c26.8,0,48.1-23.1,46.3-50C204.6,191.2,186.1,172.7,163,170.9z"/>
		</g>
		<path class="st1" d="M249.9,385.5L249.9,385.5c-10.2,0-18.5-4.6-25-11.1l-81.4-87.9c-2.8-2.8-2.8-7.4,0-11.1
			c2.8-3.7,7.4-2.8,11.1,0l82.3,87.9l0,0c3.7,3.7,8.3,6.5,13,6.5l0,0c4.6,0,10.2-1.9,13-5.6l0,0l81.4-87.9c2.8-2.8,7.4-2.8,11.1,0
			c2.8,2.8,2.8,7.4,0,11.1L274,375.3C268.4,381.8,259.2,385.5,249.9,385.5z"/>
		<path class="st1" d="M249.9,334.6c-4.6,0-7.4-3.7-7.4-7.4v-42.6c0-4.6,3.7-7.4,7.4-7.4c4.6,0,7.4,3.7,7.4,7.4v42.6
			C257.3,330.9,254.5,334.6,249.9,334.6z"/>
	</g>
</g>
</svg>
