<?xml version="1.0" encoding="utf-8"?>
<svg version="1.1" id="レイヤー_1" xmlns="http://www.w3.org/2000/svg" xmlns:xlink="http://www.w3.org/1999/xlink" x="0px"
	 y="0px" viewBox="0 0 25 25" style="enable-background:new 0 0 25 25;" xml:space="preserve">
<style type="text/css">
	.st0{fill:#FFFFFF;}
</style>
<title>icon-heart</title>
<desc>Created with Sketch.</desc>
<g id="Symbols">
	<g id="nav" transform="translate(-127.000000, -9.000000)">
		<g id="nav-favorite">
			<g transform="translate(117.000000, 9.310345)">
				<path id="icon-heart" class="st0" d="M34.8,6.7c-0.7-3.7-3.3-6.1-6.5-6.1c-1.8,0-3.8,0.8-5.8,2.3c-2-1.5-3.9-2.3-5.8-2.3
					c-3.3,0-5.8,2.4-6.5,6.2c-1,5.6,2.3,12.9,12,17c0.1,0,0.2,0.1,0.3,0.1c0.1,0,0.2,0,0.3-0.1C32.6,19.6,35.9,12.2,34.8,6.7z
					 M22.5,21.9C14,18.2,11,11.8,11.9,7.1c0.5-2.8,2.4-4.7,4.8-4.7c1.6,0,3.4,0.8,5.2,2.3c0.3,0.3,0.8,0.3,1.1,0
					c1.8-1.5,3.6-2.3,5.2-2.3c2.4,0,4.3,1.8,4.8,4.6C34,11.8,31,18.2,22.5,21.9z"/>
			</g>
		</g>
	</g>
</g>
</svg>
