<?xml version="1.0" encoding="utf-8"?>
<!-- Generator: Adobe Illustrator 23.0.1, SVG Export Plug-In . SVG Version: 6.00 Build 0)  -->
<svg version="1.1" id="レイヤー_1" xmlns="http://www.w3.org/2000/svg" xmlns:xlink="http://www.w3.org/1999/xlink" x="0px"
	 y="0px" viewBox="0 0 25 25" style="enable-background:new 0 0 25 25;" xml:space="preserve">
<style type="text/css">
	.st0{fill:#FFFFFF;}
</style>
<g>
	<g>
		<path class="st0" d="M13.6,8.4c-0.6-0.5-1.5-0.5-2.1,0c-1.2,0.9-2,2.4-2,4.1c0,1.6,0.8,3.1,2,4c0.7,0.5,1.6,0.5,2.2,0
			c1.2-0.9,2-2.4,2-4C15.6,10.9,14.8,9.4,13.6,8.4z"/>
	</g>
	<g>
		<path class="st0" d="M21.9,7.4c0.5,0,1,0,1.5,0.1c1.5,0.3,2.1,2,1.3,3.3c-0.3,0.5-0.5,1-0.5,1.6c0,0.6,0.2,1.2,0.5,1.6
			c0.8,1.3,0.1,2.9-1.4,3.3c-0.3,0.1-0.7,0.2-1.1,0.2c-2.9,0-5.2-2.5-5-5.4C17.4,9.6,19.4,7.7,21.9,7.4z"/>
	</g>
	<g>
		<path class="st0" d="M3.1,7.4c-0.5,0-1,0-1.5,0.1c-1.4,0.4-2.1,2-1.3,3.3c0.3,0.5,0.5,1,0.5,1.6c0,0.6-0.2,1.2-0.5,1.7
			c-0.8,1.3-0.1,2.9,1.4,3.3c0.3,0,0.7,0.1,1.1,0.1c2.9,0,5.2-2.5,5-5.4C7.6,9.6,5.6,7.7,3.1,7.4z"/>
	</g>
</g>
</svg>
