<?xml version="1.0" encoding="utf-8"?>
<!-- Generator: Adobe Illustrator 23.0.1, SVG Export Plug-In . SVG Version: 6.00 Build 0)  -->
<svg version="1.1" id="レイヤー_1" xmlns="http://www.w3.org/2000/svg" xmlns:xlink="http://www.w3.org/1999/xlink" x="0px"
	 y="0px" viewBox="0 0 500 500" style="enable-background:new 0 0 500 500;" xml:space="preserve">
<style type="text/css">
	.st0{fill:#5E2B08;}
	.st1{fill:#542F16;}
</style>
<g>
	<g>
		<path class="st0" d="M135.9,195.2V188h-3.1c-0.3,0-0.5-0.1-0.7-0.3s-0.3-0.4-0.3-0.7v-3.4c0-0.3,0.1-0.5,0.3-0.7s0.4-0.3,0.7-0.3
			h3.1v-6.5c0-0.3,0.1-0.5,0.3-0.7s0.4-0.3,0.7-0.3h4.8c0.3,0,0.5,0.1,0.7,0.3s0.3,0.4,0.3,0.7v6.5h4.9c0.3,0,0.5,0.1,0.7,0.3
			s0.3,0.4,0.3,0.7v3.4c0,0.3-0.1,0.5-0.3,0.7s-0.4,0.3-0.7,0.3h-4.9v6.7c0,0.9,0.2,1.6,0.5,2.1s0.9,0.7,1.6,0.7h3.1
			c0.3,0,0.5,0.1,0.7,0.3s0.3,0.4,0.3,0.7v3.6c0,0.3-0.1,0.5-0.3,0.7s-0.4,0.3-0.7,0.3h-3.7C138.7,203,135.9,200.4,135.9,195.2z"/>
		<path class="st0" d="M162.5,201.1c-1.8-1.5-2.7-3.7-2.9-6.5c0-0.3,0-0.9,0-1.8c0-0.8,0-1.4,0-1.8c0.2-2.8,1.1-4.9,3-6.5
			c1.8-1.6,4.3-2.3,7.5-2.3s5.7,0.8,7.5,2.3s2.8,3.7,3,6.5c0.1,0.7,0.1,1.3,0.1,1.8s0,1.1-0.1,1.8c-0.2,2.8-1.1,5-2.9,6.5
			c-1.8,1.5-4.3,2.3-7.6,2.3S164.3,202.6,162.5,201.1z M172.5,197.4c0.5-0.7,0.8-1.7,0.9-3.1c0-0.3,0-0.8,0-1.6s0-1.3,0-1.6
			c-0.1-1.4-0.4-2.4-0.9-3.1s-1.3-1-2.4-1c-1.1,0-1.9,0.3-2.4,1s-0.8,1.7-0.9,3.1v1.6v1.6c0.1,1.4,0.4,2.4,0.9,3.1
			c0.5,0.7,1.3,1,2.4,1C171.1,198.4,171.9,198.1,172.5,197.4z"/>
		<path class="st0" d="M192.8,202.7c-0.2-0.2-0.3-0.4-0.3-0.7v-18.4c0-0.3,0.1-0.5,0.3-0.7s0.4-0.3,0.7-0.3h4.8
			c0.3,0,0.5,0.1,0.7,0.3s0.3,0.4,0.3,0.7v1.5c0.7-0.9,1.6-1.6,2.7-2.1c1.1-0.5,2.4-0.8,3.8-0.8c1.5,0,2.8,0.3,4,1s2.1,1.7,2.7,3
			c0.7,1.3,1,2.9,1,4.8v10.9c0,0.3-0.1,0.5-0.3,0.7s-0.4,0.3-0.7,0.3h-5.2c-0.3,0-0.5-0.1-0.7-0.3s-0.3-0.4-0.3-0.7v-10.7
			c0-1.2-0.3-2.1-0.8-2.7c-0.6-0.6-1.4-0.9-2.4-0.9s-1.9,0.3-2.5,1c-0.6,0.6-0.9,1.5-0.9,2.7V202c0,0.3-0.1,0.5-0.3,0.7
			s-0.4,0.3-0.7,0.3h-5.2C193.3,203,193,202.9,192.8,202.7z"/>
		<path class="st0" d="M228.3,201c-1.8-1.6-2.8-3.8-3-6.6v-1.6v-1.6c0.1-2.8,1.1-5,2.9-6.6c1.9-1.6,4.3-2.4,7.2-2.4
			c2.3,0,4.2,0.4,5.7,1.2s2.7,1.8,3.4,2.9c0.8,1.1,1.2,2.1,1.2,3c0,0.3-0.1,0.5-0.3,0.7s-0.5,0.3-0.7,0.3h-5.2
			c-0.3,0-0.5-0.1-0.7-0.2c-0.2-0.1-0.3-0.3-0.4-0.6c-0.3-0.7-0.7-1.3-1.1-1.6c-0.5-0.3-1-0.5-1.7-0.5c-2,0-3.1,1.3-3.1,4v1.5v1.3
			c0,1.4,0.3,2.4,0.8,3s1.3,1,2.3,1c0.8,0,1.4-0.2,1.8-0.5c0.4-0.3,0.8-0.9,1.1-1.6c0.1-0.3,0.3-0.5,0.4-0.6
			c0.2-0.1,0.4-0.2,0.7-0.2h5.2c0.3,0,0.5,0.1,0.7,0.3s0.3,0.4,0.3,0.7c0,0.8-0.4,1.8-1.1,2.9c-0.7,1.1-1.9,2.1-3.4,3
			c-1.6,0.9-3.5,1.3-5.9,1.3C232.5,203.4,230.1,202.6,228.3,201z"/>
		<path class="st0" d="M259.5,200.8c-1.8-1.7-2.8-4.2-2.8-7.5v-1.2c0.1-3.1,1.1-5.5,2.9-7.3c1.8-1.7,4.3-2.6,7.4-2.6
			c2.2,0,4.1,0.4,5.7,1.3c1.6,0.9,2.7,2.1,3.5,3.7c0.8,1.6,1.2,3.4,1.2,5.4v1c0,0.3-0.1,0.5-0.3,0.7c-0.2,0.2-0.4,0.3-0.7,0.3H264
			v0.2c0,1.2,0.3,2.1,0.8,2.8s1.3,1.1,2.2,1.1c0.6,0,1.1-0.1,1.5-0.4c0.4-0.2,0.7-0.6,1.1-1c0.2-0.3,0.4-0.4,0.6-0.5
			c0.1-0.1,0.4-0.1,0.7-0.1h5.1c0.2,0,0.4,0.1,0.6,0.2c0.2,0.1,0.3,0.3,0.3,0.5c0,0.7-0.4,1.5-1.2,2.4c-0.8,0.9-1.9,1.7-3.4,2.3
			c-1.5,0.7-3.2,1-5.2,1C263.8,203.4,261.3,202.5,259.5,200.8z M270.1,190.7L270.1,190.7c0-1.3-0.3-2.3-0.8-3s-1.3-1-2.3-1
			s-1.8,0.3-2.3,1s-0.8,1.7-0.8,2.9v0.1H270.1z"/>
		<path class="st0" d="M289.3,202.7c-0.2-0.2-0.3-0.4-0.3-0.7v-18.4c0-0.3,0.1-0.5,0.3-0.7c0.2-0.2,0.4-0.3,0.7-0.3h4.8
			c0.3,0,0.5,0.1,0.7,0.3s0.3,0.4,0.3,0.7v1.5c0.7-0.8,1.6-1.4,2.6-1.9c1-0.4,2.1-0.6,3.3-0.6h1.8c0.3,0,0.5,0.1,0.7,0.3
			s0.3,0.4,0.3,0.7v4.3c0,0.3-0.1,0.5-0.3,0.7c-0.2,0.2-0.4,0.3-0.7,0.3h-4c-1,0-1.8,0.3-2.4,0.9c-0.6,0.6-0.8,1.4-0.8,2.4v9.9
			c0,0.3-0.1,0.5-0.3,0.7c-0.2,0.2-0.4,0.3-0.7,0.3H290C289.7,203,289.5,202.9,289.3,202.7z"/>
		<path class="st0" d="M319.2,210.4c-1.6-0.8-2.7-1.7-3.4-2.8c-0.7-1.1-1-1.9-1-2.6c0-0.3,0.1-0.5,0.3-0.7c0.2-0.2,0.4-0.3,0.7-0.3
			h5.2c0.3,0,0.5,0.1,0.6,0.2c0.2,0.1,0.3,0.3,0.4,0.6c0.3,0.6,0.6,1,1,1.4c0.4,0.3,1.1,0.5,2,0.5c1.1,0,2-0.3,2.5-0.8
			c0.5-0.6,0.8-1.5,0.8-2.8v-2.6c-1.4,1.4-3.3,2.2-5.7,2.2c-2.6,0-4.6-0.8-6-2.3s-2.2-3.8-2.3-6.7v-1.1c0-3.2,0.7-5.7,2.1-7.5
			s3.5-2.7,6.2-2.7c1.3,0,2.5,0.3,3.5,0.8s1.9,1.2,2.5,2.1v-1.4c0-0.3,0.1-0.5,0.3-0.7c0.2-0.2,0.4-0.3,0.7-0.3h4.8
			c0.3,0,0.5,0.1,0.7,0.3c0.2,0.2,0.3,0.4,0.3,0.7v18.7c0,3-0.9,5.3-2.7,6.8c-1.8,1.6-4.3,2.3-7.6,2.3
			C322.8,211.6,320.8,211.2,319.2,210.4z M327.5,196.2c0.5-0.7,0.9-1.5,0.9-2.6c0-0.2,0-0.6,0-1.2c0-0.6,0-1,0-1.2
			c-0.1-1.1-0.4-1.9-0.9-2.6c-0.5-0.7-1.4-1-2.5-1s-2,0.3-2.5,1c-0.5,0.7-0.8,1.6-0.9,2.9v0.9c0,1.5,0.2,2.7,0.7,3.5
			s1.4,1.3,2.7,1.3C326.1,197.2,326.9,196.9,327.5,196.2z"/>
		<path class="st0" d="M350.3,200.8c-1.8-1.7-2.8-4.2-2.8-7.5v-1.2c0.1-3.1,1.1-5.5,2.9-7.3c1.8-1.7,4.3-2.6,7.4-2.6
			c2.2,0,4.1,0.4,5.7,1.3c1.6,0.9,2.7,2.1,3.5,3.7c0.8,1.6,1.2,3.4,1.2,5.4v1c0,0.3-0.1,0.5-0.3,0.7c-0.2,0.2-0.4,0.3-0.7,0.3h-12.4
			v0.2c0,1.2,0.3,2.1,0.8,2.8s1.3,1.1,2.2,1.1c0.6,0,1.1-0.1,1.5-0.4c0.4-0.2,0.7-0.6,1.1-1c0.2-0.3,0.4-0.4,0.6-0.5
			c0.1-0.1,0.4-0.1,0.7-0.1h5.1c0.2,0,0.4,0.1,0.6,0.2c0.2,0.1,0.3,0.3,0.3,0.5c0,0.7-0.4,1.5-1.2,2.4c-0.8,0.9-1.9,1.7-3.4,2.3
			c-1.5,0.7-3.2,1-5.2,1C354.7,203.4,352.2,202.5,350.3,200.8z M360.9,190.7L360.9,190.7c0-1.3-0.3-2.3-0.8-3s-1.3-1-2.3-1
			s-1.8,0.3-2.3,1s-0.8,1.7-0.8,2.9v0.1H360.9z"/>
	</g>
	<g>
		<g>
			<path class="st1" d="M260.1,240.8c-5.6-4.6-13.9-4.6-19.4,0c-11.1,8.3-18.5,22.2-18.5,37.9c0,14.8,7.4,28.7,18.5,37
				c6.5,4.6,14.8,4.6,20.4,0c11.1-8.3,18.5-22.2,18.5-37C278.6,263,271.2,249.2,260.1,240.8z"/>
		</g>
		<g>
			<path class="st1" d="M336.9,231.6c4.6,0,9.3,0,13.9,0.9c13.9,2.8,19.4,18.5,12,30.5c-2.8,4.6-4.6,9.3-4.6,14.8s1.9,11.1,4.6,14.8
				c7.4,12,0.9,26.8-13,30.5c-2.8,0.9-6.5,1.9-10.2,1.9c-26.8,0-48.1-23.1-46.3-50C295.2,251.9,313.7,233.4,336.9,231.6z"/>
		</g>
		<g>
			<path class="st1" d="M163,231.6c-4.6,0-9.3,0-13.9,0.9c-13,3.7-19.4,18.5-12,30.5c2.8,4.6,4.6,9.3,4.6,14.8s-1.9,11.1-4.6,15.7
				c-7.4,12-0.9,26.8,13,30.5c2.8,0,6.5,0.9,10.2,0.9c26.8,0,48.1-23.1,46.3-50C204.6,251.9,186.1,233.4,163,231.6z"/>
		</g>
	</g>
</g>
</svg>
